solid pininho
facet normal -0.995166830860644 -0.0981985303416901 0.000165509865192773
  outer loop
    vertex 35.0167883235403 45.2499661529168 38.7885691875563
    vertex 34.9171132039372 46.2314436980077 21.7882508288895
    vertex 35.0145258780211 45.2442414563808 21.7885703019919
  endloop
endfacet
facet normal -0.995166830860644 -0.0981985303416901 0.000165509865192773
  outer loop
    vertex 34.9171132039372 46.2314436980077 21.7882508288895
    vertex 35.0167883235403 45.2499661529168 38.7885691875563
    vertex 34.9193756494564 46.2371683945437 38.7882497144539
  endloop
endfacet
facet normal -0.986673006007192 0.16271562113643 7.65174384680492e-005
  outer loop
    vertex 34.8553749886505 44.2711897693286 38.7889202691469
    vertex 35.0145258780211 45.2442414563808 21.7885703019919
    vertex 34.8531125431313 44.2654650727926 21.7889213835825
  endloop
endfacet
facet normal -0.986673006007192 0.16271562113643 7.65174384680492e-005
  outer loop
    vertex 35.0145258780211 45.2442414563808 21.7885703019919
    vertex 34.8553749886505 44.2711897693286 38.7889202691469
    vertex 35.0167883235403 45.2499661529168 38.7885691875563
  endloop
endfacet
facet normal -0.000133085030544786 -0.000336746855058173 -0.999999934444963
  outer loop
    vertex 27.2391459007979 49.6129574133311 21.7881339372859
    vertex 27.5799807263019 46.4702977332466 21.789146858103
    vertex 27.418567391412 45.4915213496584 21.7894979396936
  endloop
endfacet
facet normal -0.000133085030544786 -0.000336746855058173 -0.999999934444963
  outer loop
    vertex 27.5799807263019 46.4702977332466 21.789146858103
    vertex 27.2391459007979 49.6129574133311 21.7881339372859
    vertex 28.473379070131 50.4977369173916 21.7876717325812
  endloop
endfacet
facet normal -0.000133085030544786 -0.000336746855058173 -0.999999934444963
  outer loop
    vertex 27.5799807263019 46.4702977332466 21.789146858103
    vertex 28.473379070131 50.4977369173916 21.7876717325812
    vertex 27.9892200181409 47.3739462657589 21.7887880936544
  endloop
endfacet
facet normal -0.000133085030544786 -0.000336746855058173 -0.999999934444963
  outer loop
    vertex 27.9892200181409 47.3739462657589 21.7887880936544
    vertex 28.473379070131 50.4977369173916 21.7876717325812
    vertex 28.6183962854901 48.1408847930545 21.7884460955521
  endloop
endfacet
facet normal -0.000133085030544786 -0.000336746855058173 -0.999999934444963
  outer loop
    vertex 28.6183962854901 48.1408847930545 21.7884460955521
    vertex 28.473379070131 50.4977369173916 21.7876717325812
    vertex 29.8945545756919 51.0329252456347 21.787302372385
  endloop
endfacet
facet normal -0.000133085030544786 -0.000336746855058173 -0.999999934444963
  outer loop
    vertex 28.6183962854901 48.1408847930545 21.7884460955521
    vertex 29.8945545756919 51.0329252456347 21.787302372385
    vertex 29.4246322054926 48.718847721924 21.7881441704017
  endloop
endfacet
facet normal -0.000133085030544786 -0.000336746855058173 -0.999999934444963
  outer loop
    vertex 29.4246322054926 48.718847721924 21.7881441704017
    vertex 29.8945545756919 51.0329252456347 21.787302372385
    vertex 30.3529841325682 49.0684478338938 21.787902893903
  endloop
endfacet
facet normal -0.000133085030544786 -0.000336746855058173 -0.999999934444963
  outer loop
    vertex 30.3529841325682 49.0684478338938 21.787902893903
    vertex 29.8945545756919 51.0329252456347 21.787302372385
    vertex 31.4058216553801 51.1820501979312 21.7870510279844
  endloop
endfacet
facet normal -0.000133085030544786 -0.000336746855058173 -0.999999934444963
  outer loop
    vertex 30.3529841325682 49.0684478338938 21.787902893903
    vertex 31.4058216553801 51.1820501979312 21.7870510279844
    vertex 31.3401864170606 49.1658604590748 21.7877387086509
  endloop
endfacet
facet normal -0.000133085030544786 -0.000336746855058173 -0.999999934444963
  outer loop
    vertex 31.3401864170606 49.1658604590748 21.7877387086509
    vertex 31.4058216553801 51.1820501979312 21.7870510279844
    vertex 32.3189628547107 49.0044470880427 21.7876628035989
  endloop
endfacet
facet normal -0.000133085030544786 -0.000336746855058173 -0.999999934444963
  outer loop
    vertex 32.3189628547107 49.0044470880427 21.7876628035989
    vertex 31.4058216553801 51.1820501979312 21.7870510279844
    vertex 32.9041899552018 50.9349491552227 21.7869348280848
  endloop
endfacet
facet normal -0.000133085030544786 -0.000336746855058173 -0.999999934444963
  outer loop
    vertex 32.3189628547107 49.0044470880427 21.7876628035989
    vertex 32.9041899552018 50.9349491552227 21.7869348280848
    vertex 33.2226114487971 48.5952077752852 21.7876803515508
  endloop
endfacet
facet normal -0.000133085030544786 -0.000336746855058173 -0.999999934444963
  outer loop
    vertex 33.2226114487971 48.5952077752852 21.7876803515508
    vertex 32.9041899552018 50.9349491552227 21.7869348280848
    vertex 34.2875481516949 50.308461645216 21.7869616915175
  endloop
endfacet
facet normal -0.000133085030544786 -0.000336746855058173 -0.999999934444963
  outer loop
    vertex 33.2226114487971 48.5952077752852 21.7876803515508
    vertex 34.2875481516949 50.308461645216 21.7869616915175
    vertex 33.9895500409828 47.9660315036668 21.7877901566428
  endloop
endfacet
facet normal -0.000133085030544786 -0.000336746855058173 -0.999999934444963
  outer loop
    vertex 33.9895500409828 47.9660315036668 21.7877901566428
    vertex 34.2875481516949 50.308461645216 21.7869616915175
    vertex 34.5675130336363 47.1597955963354 21.7879847358393
  endloop
endfacet
facet normal -0.000133085030544786 -0.000336746855058173 -0.999999934444963
  outer loop
    vertex 34.5675130336363 47.1597955963354 21.7879847358393
    vertex 34.2875481516949 50.308461645216 21.7869616915175
    vertex 35.4616226698759 49.3452817563986 21.7871297875838
  endloop
endfacet
facet normal -0.000133085030544786 -0.000336746855058173 -0.999999934444963
  outer loop
    vertex 34.5675130336363 47.1597955963354 21.7879847358393
    vertex 35.4616226698759 49.3452817563986 21.7871297875838
    vertex 34.9171132039372 46.2314436980077 21.7882508288895
  endloop
endfacet
facet normal -0.000133085030544786 -0.000336746855058173 -0.999999934444963
  outer loop
    vertex 34.9171132039372 46.2314436980077 21.7882508288895
    vertex 35.4616226698759 49.3452817563986 21.7871297875838
    vertex 35.0145258780211 45.2442414563808 21.7885703019919
  endloop
endfacet
facet normal -0.000133085030544786 -0.000336746855058173 -0.999999934444963
  outer loop
    vertex 35.0145258780211 45.2442414563808 21.7885703019919
    vertex 35.4616226698759 49.3452817563986 21.7871297875838
    vertex 35.1939473686352 41.1228053927081 21.7899343043996
  endloop
endfacet
facet normal -0.000133085030544786 -0.000336746855058173 -0.999999934444963
  outer loop
    vertex 35.1939473686352 41.1228053927081 21.7899343043996
    vertex 35.4616226698759 49.3452817563986 21.7871297875838
    vertex 36.1571272509172 42.2968798115515 21.789410753673
  endloop
endfacet
facet normal -0.000133085030544786 -0.000336746855058173 -0.999999934444963
  outer loop
    vertex 36.1571272509172 42.2968798115515 21.789410753673
    vertex 35.4616226698759 49.3452817563986 21.7871297875838
    vertex 36.3464022715807 48.1110486064632 21.7874276608147
  endloop
endfacet
facet normal -0.000133085030544786 -0.000336746855058173 -0.999999934444963
  outer loop
    vertex 36.1571272509172 42.2968798115515 21.789410753673
    vertex 36.3464022715807 48.1110486064632 21.7874276608147
    vertex 36.7836147289006 43.6802379137834 21.7888615360416
  endloop
endfacet
facet normal -0.000133085030544786 -0.000336746855058173 -0.999999934444963
  outer loop
    vertex 36.7836147289006 43.6802379137834 21.7888615360416
    vertex 36.3464022715807 48.1110486064632 21.7874276608147
    vertex 36.8815906891204 46.6898731449112 21.7878350116416
  endloop
endfacet
facet normal -0.000133085030544786 -0.000336746855058173 -0.999999934444963
  outer loop
    vertex 36.7836147289006 43.6802379137834 21.7888615360416
    vertex 36.8815906891204 46.6898731449112 21.7878350116416
    vertex 37.0307157162804 45.1786061308441 21.788324079779
  endloop
endfacet
facet normal -0.000133085030544786 -0.000336746855058173 -0.999999934444963
  outer loop
    vertex 25.6494785405325 47.0555248922557 21.789206705644
    vertex 25.5515025803127 44.0458896611279 21.7902332300439
    vertex 25.4023775531527 45.5571566751951 21.7897441619065
  endloop
endfacet
facet normal -0.000133085030544786 -0.000336746855058173 -0.999999934444963
  outer loop
    vertex 25.5515025803127 44.0458896611279 21.7902332300439
    vertex 25.6494785405325 47.0555248922557 21.789206705644
    vertex 26.0866909978525 42.624714199576 21.7906405808708
  endloop
endfacet
facet normal -0.000133085030544786 -0.000336746855058173 -0.999999934444963
  outer loop
    vertex 26.0866909978525 42.624714199576 21.7906405808708
    vertex 25.6494785405325 47.0555248922557 21.789206705644
    vertex 26.275966018516 48.4388829944876 21.7886574880125
  endloop
endfacet
facet normal -0.000133085030544786 -0.000336746855058173 -0.999999934444963
  outer loop
    vertex 26.0866909978525 42.624714199576 21.7906405808708
    vertex 26.275966018516 48.4388829944876 21.7886574880125
    vertex 26.9714705995572 41.3904810496406 21.7909384541017
  endloop
endfacet
facet normal -0.000133085030544786 -0.000336746855058173 -0.999999934444963
  outer loop
    vertex 26.9714705995572 41.3904810496406 21.7909384541017
    vertex 26.275966018516 48.4388829944876 21.7886574880125
    vertex 27.2391459007979 49.6129574133311 21.7881339372859
  endloop
endfacet
facet normal -0.000133085030544786 -0.000336746855058173 -0.999999934444963
  outer loop
    vertex 26.9714705995572 41.3904810496406 21.7909384541017
    vertex 27.2391459007979 49.6129574133311 21.7881339372859
    vertex 27.418567391412 45.4915213496584 21.7894979396936
  endloop
endfacet
facet normal -0.000133085030544786 -0.000336746855058173 -0.999999934444963
  outer loop
    vertex 26.9714705995572 41.3904810496406 21.7909384541017
    vertex 27.418567391412 45.4915213496584 21.7894979396936
    vertex 27.5159800654959 44.5043191080314 21.789817412796
  endloop
endfacet
facet normal -0.000133085030544786 -0.000336746855058173 -0.999999934444963
  outer loop
    vertex 26.9714705995572 41.3904810496406 21.7909384541017
    vertex 27.5159800654959 44.5043191080314 21.789817412796
    vertex 28.1455451177382 40.4273011608231 21.791106550168
  endloop
endfacet
facet normal -0.000133085030544786 -0.000336746855058173 -0.999999934444963
  outer loop
    vertex 28.1455451177382 40.4273011608231 21.791106550168
    vertex 27.5159800654959 44.5043191080314 21.789817412796
    vertex 27.8655802357968 43.5759672097037 21.7900835058462
  endloop
endfacet
facet normal -0.000133085030544786 -0.000336746855058173 -0.999999934444963
  outer loop
    vertex 28.1455451177382 40.4273011608231 21.791106550168
    vertex 27.8655802357968 43.5759672097037 21.7900835058462
    vertex 28.4435432284503 42.7697313023723 21.7902780850427
  endloop
endfacet
facet normal -0.000133085030544786 -0.000336746855058173 -0.999999934444963
  outer loop
    vertex 28.1455451177382 40.4273011608231 21.791106550168
    vertex 28.4435432284503 42.7697313023723 21.7902780850427
    vertex 29.5289033142313 39.8008136508164 21.7911334136007
  endloop
endfacet
facet normal -0.000133085030544786 -0.000336746855058173 -0.999999934444963
  outer loop
    vertex 29.5289033142313 39.8008136508164 21.7911334136007
    vertex 28.4435432284503 42.7697313023723 21.7902780850427
    vertex 29.210481820636 42.1405550307539 21.7903878901347
  endloop
endfacet
facet normal -0.000133085030544786 -0.000336746855058173 -0.999999934444963
  outer loop
    vertex 29.5289033142313 39.8008136508164 21.7911334136007
    vertex 29.210481820636 42.1405550307539 21.7903878901347
    vertex 30.1141304147224 41.7313157179965 21.7904054380866
  endloop
endfacet
facet normal -0.000133085030544786 -0.000336746855058173 -0.999999934444963
  outer loop
    vertex 29.5289033142313 39.8008136508164 21.7911334136007
    vertex 30.1141304147224 41.7313157179965 21.7904054380866
    vertex 31.0272716140531 39.5537126081079 21.7910172137011
  endloop
endfacet
facet normal -0.000133085030544786 -0.000336746855058173 -0.999999934444963
  outer loop
    vertex 31.0272716140531 39.5537126081079 21.7910172137011
    vertex 30.1141304147224 41.7313157179965 21.7904054380866
    vertex 31.0929068523725 41.5699023469644 21.7903295330346
  endloop
endfacet
facet normal -0.000133085030544786 -0.000336746855058173 -0.999999934444963
  outer loop
    vertex 31.0272716140531 39.5537126081079 21.7910172137011
    vertex 31.0929068523725 41.5699023469644 21.7903295330346
    vertex 32.5385386937413 39.7028375604044 21.7907658693005
  endloop
endfacet
facet normal -0.000133085030544786 -0.000336746855058173 -0.999999934444963
  outer loop
    vertex 32.5385386937413 39.7028375604044 21.7907658693005
    vertex 31.0929068523725 41.5699023469644 21.7903295330346
    vertex 32.080109136865 41.6673149721453 21.7901653477825
  endloop
endfacet
facet normal -0.000133085030544786 -0.000336746855058173 -0.999999934444963
  outer loop
    vertex 32.5385386937413 39.7028375604044 21.7907658693005
    vertex 32.080109136865 41.6673149721453 21.7901653477825
    vertex 33.0084610639405 42.0169150841151 21.7899240712838
  endloop
endfacet
facet normal -0.000133085030544786 -0.000336746855058173 -0.999999934444963
  outer loop
    vertex 32.5385386937413 39.7028375604044 21.7907658693005
    vertex 33.0084610639405 42.0169150841151 21.7899240712838
    vertex 33.9597141993021 40.2380258886476 21.7903965091043
  endloop
endfacet
facet normal -0.000133085030544786 -0.000336746855058173 -0.999999934444963
  outer loop
    vertex 33.9597141993021 40.2380258886476 21.7903965091043
    vertex 33.0084610639405 42.0169150841151 21.7899240712838
    vertex 33.8146969839431 42.5948780129846 21.7896221461334
  endloop
endfacet
facet normal -0.000133085030544786 -0.000336746855058173 -0.999999934444963
  outer loop
    vertex 33.9597141993021 40.2380258886476 21.7903965091043
    vertex 33.8146969839431 42.5948780129846 21.7896221461334
    vertex 34.4438732512923 43.3618165402802 21.7892801480311
  endloop
endfacet
facet normal -0.000133085030544786 -0.000336746855058173 -0.999999934444963
  outer loop
    vertex 33.9597141993021 40.2380258886476 21.7903965091043
    vertex 34.4438732512923 43.3618165402802 21.7892801480311
    vertex 35.1939473686352 41.1228053927081 21.7899343043996
  endloop
endfacet
facet normal -0.000133085030544786 -0.000336746855058173 -0.999999934444963
  outer loop
    vertex 35.1939473686352 41.1228053927081 21.7899343043996
    vertex 34.4438732512923 43.3618165402802 21.7892801480311
    vertex 34.8531125431313 44.2654650727926 21.7889213835825
  endloop
endfacet
facet normal -0.000133085030544786 -0.000336746855058173 -0.999999934444963
  outer loop
    vertex 35.1939473686352 41.1228053927081 21.7899343043996
    vertex 34.8531125431313 44.2654650727926 21.7889213835825
    vertex 35.0145258780211 45.2442414563808 21.7885703019919
  endloop
endfacet
facet normal 0.162715584702642 0.986672951509124 -0.000353914045150216
  outer loop
    vertex 29.5281846550664 39.7989952177991 16.3911337675979
    vertex 31.0272716140531 39.5537126081079 21.7910172137011
    vertex 31.0265529548881 39.5518941750906 16.3910175676983
  endloop
endfacet
facet normal 0.162715584702642 0.986672951509124 -0.000353914045150216
  outer loop
    vertex 31.0272716140531 39.5537126081079 21.7910172137011
    vertex 29.5281846550664 39.7989952177991 16.3911337675979
    vertex 29.5289033142313 39.8008136508164 21.7911334136007
  endloop
endfacet
facet normal -0.0981985796392026 0.995166787649331 -0.000322050546136601
  outer loop
    vertex 31.0265529548881 39.5518941750906 16.3910175676983
    vertex 32.5385386937413 39.7028375604044 21.7907658693005
    vertex 32.5378200345763 39.7010191273871 16.3907662232977
  endloop
endfacet
facet normal -0.0981985796392026 0.995166787649331 -0.000322050546136601
  outer loop
    vertex 32.5385386937413 39.7028375604044 21.7907658693005
    vertex 31.0265529548881 39.5518941750906 16.3910175676983
    vertex 31.0272716140531 39.5537126081079 21.7910172137011
  endloop
endfacet
facet normal -0.352420673059476 0.935841651802108 -0.000268239834627738
  outer loop
    vertex 32.5378200345763 39.7010191273871 16.3907662232977
    vertex 33.9597141993021 40.2380258886476 21.7903965091043
    vertex 33.9589955401372 40.2362074556302 16.3903968631015
  endloop
endfacet
facet normal -0.352420673059476 0.935841651802108 -0.000268239834627738
  outer loop
    vertex 33.9597141993021 40.2380258886476 21.7903965091043
    vertex 32.5378200345763 39.7010191273871 16.3907662232977
    vertex 32.5385386937413 39.7028375604044 21.7907658693005
  endloop
endfacet
facet normal -0.582625880013447 0.812740453936014 -0.00019614902166647
  outer loop
    vertex 33.9589955401372 40.2362074556302 16.3903968631015
    vertex 35.1939473686352 41.1228053927081 21.7899343043996
    vertex 35.1932287094702 41.1209869596908 16.3899346583968
  endloop
endfacet
facet normal -0.582625880013447 0.812740453936014 -0.00019614902166647
  outer loop
    vertex 35.1939473686352 41.1228053927081 21.7899343043996
    vertex 33.9589955401372 40.2362074556302 16.3903968631015
    vertex 33.9597141993021 40.2380258886476 21.7903965091043
  endloop
endfacet
facet normal -0.773126096079234 0.634252337251342 -0.000110690977024623
  outer loop
    vertex 35.1939473686352 41.1228053927081 21.7899343043996
    vertex 36.1564085917523 42.2950613785342 16.3894111076702
    vertex 35.1932287094702 41.1209869596908 16.3899346583968
  endloop
endfacet
facet normal -0.773126096079234 0.634252337251342 -0.000110690977024623
  outer loop
    vertex 36.1564085917523 42.2950613785342 16.3894111076702
    vertex 35.1939473686352 41.1228053927081 21.7899343043996
    vertex 36.1571272509172 42.2968798115515 21.789410753673
  endloop
endfacet
facet normal -0.910939046348585 0.412540971934439 -1.76895252397488e-005
  outer loop
    vertex 36.1571272509172 42.2968798115515 21.789410753673
    vertex 36.7828960697357 43.6784194807661 16.3888618900388
    vertex 36.1564085917523 42.2950613785342 16.3894111076702
  endloop
endfacet
facet normal -0.910939046348585 0.412540971934439 -1.76895252397488e-005
  outer loop
    vertex 36.7828960697357 43.6784194807661 16.3888618900388
    vertex 36.1571272509172 42.2968798115515 21.789410753673
    vertex 36.7836147289006 43.6802379137834 21.7888615360416
  endloop
endfacet
facet normal -0.986673006007187 0.162715621136456 7.65174384625029e-005
  outer loop
    vertex 36.7836147289006 43.6802379137834 21.7888615360416
    vertex 37.0299970571155 45.1767876978267 16.3883244337762
    vertex 36.7828960697357 43.6784194807661 16.3888618900388
  endloop
endfacet
facet normal -0.986673006007187 0.162715621136456 7.65174384625029e-005
  outer loop
    vertex 37.0299970571155 45.1767876978267 16.3883244337762
    vertex 36.7836147289006 43.6802379137834 21.7888615360416
    vertex 37.0307157162804 45.1786061308441 21.788324079779
  endloop
endfacet
facet normal -0.995166830860647 -0.0981985303416609 0.00016550986518877
  outer loop
    vertex 37.0307157162804 45.1786061308441 21.788324079779
    vertex 36.8808720299555 46.6880547118939 16.3878353656388
    vertex 37.0299970571155 45.1767876978267 16.3883244337762
  endloop
endfacet
facet normal -0.995166830860647 -0.0981985303416609 0.00016550986518877
  outer loop
    vertex 36.8808720299555 46.6880547118939 16.3878353656388
    vertex 37.0307157162804 45.1786061308441 21.788324079779
    vertex 36.8815906891204 46.6898731449112 21.7878350116416
  endloop
endfacet
facet normal -0.935841680781897 -0.352420614257812 0.00024322306812639
  outer loop
    vertex 36.8815906891204 46.6898731449112 21.7878350116416
    vertex 36.3456836124157 48.1092301734459 16.3874280148119
    vertex 36.8808720299555 46.6880547118939 16.3878353656388
  endloop
endfacet
facet normal -0.935841680781897 -0.352420614257812 0.00024322306812639
  outer loop
    vertex 36.3456836124157 48.1092301734459 16.3874280148119
    vertex 36.8815906891204 46.6898731449112 21.7878350116416
    vertex 36.3464022715807 48.1110486064632 21.7874276608147
  endloop
endfacet
facet normal -0.812740466709353 -0.582625815714883 0.0003043610209127
  outer loop
    vertex 36.3464022715807 48.1110486064632 21.7874276608147
    vertex 35.460904010711 49.3434633233812 16.387130141581
    vertex 36.3456836124157 48.1092301734459 16.3874280148119
  endloop
endfacet
facet normal -0.812740466709353 -0.582625815714883 0.0003043610209127
  outer loop
    vertex 35.460904010711 49.3434633233812 16.387130141581
    vertex 36.3464022715807 48.1110486064632 21.7874276608147
    vertex 35.4616226698759 49.3452817563986 21.7871297875838
  endloop
endfacet
facet normal -0.634252332947706 -0.773126030665644 0.000344757273094452
  outer loop
    vertex 35.460904010711 49.3434633233812 16.387130141581
    vertex 34.2875481516949 50.308461645216 21.7869616915175
    vertex 34.28682949253 50.3066432121987 16.3869620455147
  endloop
endfacet
facet normal -0.634252332947706 -0.773126030665644 0.000344757273094452
  outer loop
    vertex 34.2875481516949 50.308461645216 21.7869616915175
    vertex 35.460904010711 49.3434633233812 16.387130141581
    vertex 35.4616226698759 49.3452817563986 21.7871297875838
  endloop
endfacet
facet normal -0.412540950847229 -0.910938984277714 0.000361658886852182
  outer loop
    vertex 34.28682949253 50.3066432121987 16.3869620455147
    vertex 32.9041899552018 50.9349491552227 21.7869348280848
    vertex 32.9034712960369 50.9331307222054 16.386935182082
  endloop
endfacet
facet normal -0.412540950847229 -0.910938984277714 0.000361658886852182
  outer loop
    vertex 32.9041899552018 50.9349491552227 21.7869348280848
    vertex 34.28682949253 50.3066432121987 16.3869620455147
    vertex 34.2875481516949 50.308461645216 21.7869616915175
  endloop
endfacet
facet normal -0.162715584702646 -0.986672951509123 0.000353914045150301
  outer loop
    vertex 32.9041899552018 50.9349491552227 21.7869348280848
    vertex 31.4051029962151 51.1802317649139 16.3870513819816
    vertex 32.9034712960369 50.9331307222054 16.386935182082
  endloop
endfacet
facet normal -0.162715584702646 -0.986672951509123 0.000353914045150301
  outer loop
    vertex 31.4051029962151 51.1802317649139 16.3870513819816
    vertex 32.9041899552018 50.9349491552227 21.7869348280848
    vertex 31.4058216553801 51.1820501979312 21.7870510279844
  endloop
endfacet
facet normal 0.0981985796392026 -0.995166787649331 0.000322050546136601
  outer loop
    vertex 31.4058216553801 51.1820501979312 21.7870510279844
    vertex 29.8938359165269 51.0311068126174 16.3873027263822
    vertex 31.4051029962151 51.1802317649139 16.3870513819816
  endloop
endfacet
facet normal 0.0981985796392026 -0.995166787649331 0.000322050546136601
  outer loop
    vertex 29.8938359165269 51.0311068126174 16.3873027263822
    vertex 31.4058216553801 51.1820501979312 21.7870510279844
    vertex 29.8945545756919 51.0329252456347 21.787302372385
  endloop
endfacet
facet normal 0.352420673059449 -0.935841651802117 0.000268239834618769
  outer loop
    vertex 29.8945545756919 51.0329252456347 21.787302372385
    vertex 28.4726604109661 50.4959184843743 16.3876720865784
    vertex 29.8938359165269 51.0311068126174 16.3873027263822
  endloop
endfacet
facet normal 0.352420673059449 -0.935841651802117 0.000268239834618769
  outer loop
    vertex 28.4726604109661 50.4959184843743 16.3876720865784
    vertex 29.8945545756919 51.0329252456347 21.787302372385
    vertex 28.473379070131 50.4977369173916 21.7876717325812
  endloop
endfacet
facet normal 0.582625880013409 -0.812740453936041 0.000196149021664871
  outer loop
    vertex 28.473379070131 50.4977369173916 21.7876717325812
    vertex 27.238427241633 49.6111389803138 16.3881342912831
    vertex 28.4726604109661 50.4959184843743 16.3876720865784
  endloop
endfacet
facet normal 0.582625880013409 -0.812740453936041 0.000196149021664871
  outer loop
    vertex 27.238427241633 49.6111389803138 16.3881342912831
    vertex 28.473379070131 50.4977369173916 21.7876717325812
    vertex 27.2391459007979 49.6129574133311 21.7881339372859
  endloop
endfacet
facet normal 0.773126096079294 -0.63425233725127 0.000110690977024507
  outer loop
    vertex 27.238427241633 49.6111389803138 16.3881342912831
    vertex 26.275966018516 48.4388829944876 21.7886574880125
    vertex 26.275247359351 48.4370645614703 16.3886578420097
  endloop
endfacet
facet normal 0.773126096079294 -0.63425233725127 0.000110690977024507
  outer loop
    vertex 26.275966018516 48.4388829944876 21.7886574880125
    vertex 27.238427241633 49.6111389803138 16.3881342912831
    vertex 27.2391459007979 49.6129574133311 21.7881339372859
  endloop
endfacet
facet normal 0.910939046348572 -0.412540971934468 1.76895252307232e-005
  outer loop
    vertex 26.275247359351 48.4370645614703 16.3886578420097
    vertex 25.6494785405325 47.0555248922557 21.789206705644
    vertex 25.6487598813676 47.0537064592384 16.3892070596412
  endloop
endfacet
facet normal 0.910939046348572 -0.412540971934468 1.76895252307232e-005
  outer loop
    vertex 25.6494785405325 47.0555248922557 21.789206705644
    vertex 26.275247359351 48.4370645614703 16.3886578420097
    vertex 26.275966018516 48.4388829944876 21.7886574880125
  endloop
endfacet
facet normal 0.986673006007181 -0.162715621136492 -7.65174384738088e-005
  outer loop
    vertex 25.6487598813676 47.0537064592384 16.3892070596412
    vertex 25.4023775531527 45.5571566751951 21.7897441619065
    vertex 25.4016588939877 45.5553382421778 16.3897445159037
  endloop
endfacet
facet normal 0.986673006007181 -0.162715621136492 -7.65174384738088e-005
  outer loop
    vertex 25.4023775531527 45.5571566751951 21.7897441619065
    vertex 25.6487598813676 47.0537064592384 16.3892070596412
    vertex 25.6494785405325 47.0555248922557 21.789206705644
  endloop
endfacet
facet normal 0.995166830860644 0.0981985303416893 -0.000165509865197627
  outer loop
    vertex 25.4016588939877 45.5553382421778 16.3897445159037
    vertex 25.5515025803127 44.0458896611279 21.7902332300439
    vertex 25.5507839211478 44.0440712281106 16.3902335840411
  endloop
endfacet
facet normal 0.995166830860644 0.0981985303416893 -0.000165509865197627
  outer loop
    vertex 25.5515025803127 44.0458896611279 21.7902332300439
    vertex 25.4016588939877 45.5553382421778 16.3897445159037
    vertex 25.4023775531527 45.5571566751951 21.7897441619065
  endloop
endfacet
facet normal 0.935841680781893 0.352420614257822 -0.00024322306812866
  outer loop
    vertex 25.5507839211478 44.0440712281106 16.3902335840411
    vertex 26.0866909978525 42.624714199576 21.7906405808708
    vertex 26.0859723386875 42.6228957665586 16.390640934868
  endloop
endfacet
facet normal 0.935841680781893 0.352420614257822 -0.00024322306812866
  outer loop
    vertex 26.0866909978525 42.624714199576 21.7906405808708
    vertex 25.5507839211478 44.0440712281106 16.3902335840411
    vertex 25.5515025803127 44.0458896611279 21.7902332300439
  endloop
endfacet
facet normal 0.812740466709352 0.582625815714884 -0.000304361020911548
  outer loop
    vertex 26.0859723386875 42.6228957665586 16.390640934868
    vertex 26.9714705995572 41.3904810496406 21.7909384541017
    vertex 26.9707519403923 41.3886626166233 16.3909388080989
  endloop
endfacet
facet normal 0.812740466709352 0.582625815714884 -0.000304361020911548
  outer loop
    vertex 26.9714705995572 41.3904810496406 21.7909384541017
    vertex 26.0859723386875 42.6228957665586 16.390640934868
    vertex 26.0866909978525 42.624714199576 21.7906405808708
  endloop
endfacet
facet normal 0.634252332947726 0.773126030665628 -0.000344757273087186
  outer loop
    vertex 26.9714705995572 41.3904810496406 21.7909384541017
    vertex 28.1448264585733 40.4254827278058 16.3911069041652
    vertex 26.9707519403923 41.3886626166233 16.3909388080989
  endloop
endfacet
facet normal 0.634252332947726 0.773126030665628 -0.000344757273087186
  outer loop
    vertex 28.1448264585733 40.4254827278058 16.3911069041652
    vertex 26.9714705995572 41.3904810496406 21.7909384541017
    vertex 28.1455451177382 40.4273011608231 21.791106550168
  endloop
endfacet
facet normal 0.412540950847232 0.910938984277713 -0.000361658886852663
  outer loop
    vertex 28.1455451177382 40.4273011608231 21.791106550168
    vertex 29.5281846550664 39.7989952177991 16.3911337675979
    vertex 28.1448264585733 40.4254827278058 16.3911069041652
  endloop
endfacet
facet normal 0.412540950847232 0.910938984277713 -0.000361658886852663
  outer loop
    vertex 29.5281846550664 39.7989952177991 16.3911337675979
    vertex 28.1455451177382 40.4273011608231 21.791106550168
    vertex 29.5289033142313 39.8008136508164 21.7911334136007
  endloop
endfacet
facet normal -0.000133085030542373 -0.000336746855059741 -0.999999934444963
  outer loop
    vertex 27.5822431718211 46.4760224297826 38.7891457436673
    vertex 27.5182425110152 44.5100438045674 38.7898162983604
    vertex 27.4208298369313 45.4972460461944 38.7894968252579
  endloop
endfacet
facet normal -0.000133085030542373 -0.000336746855059741 -0.999999934444963
  outer loop
    vertex 27.5182425110152 44.5100438045674 38.7898162983604
    vertex 27.5822431718211 46.4760224297826 38.7891457436673
    vertex 27.8678426813161 43.5816919062397 38.7900823914106
  endloop
endfacet
facet normal -0.000133085030542373 -0.000336746855059741 -0.999999934444963
  outer loop
    vertex 27.8678426813161 43.5816919062397 38.7900823914106
    vertex 27.5822431718211 46.4760224297826 38.7891457436673
    vertex 27.9914824636601 47.3796709622949 38.7887869792188
  endloop
endfacet
facet normal -0.000133085030542373 -0.000336746855059741 -0.999999934444963
  outer loop
    vertex 27.8678426813161 43.5816919062397 38.7900823914106
    vertex 27.9914824636601 47.3796709622949 38.7887869792188
    vertex 28.4458056739695 42.7754559989083 38.7902769706071
  endloop
endfacet
facet normal -0.000133085030542373 -0.000336746855059741 -0.999999934444963
  outer loop
    vertex 28.4458056739695 42.7754559989083 38.7902769706071
    vertex 27.9914824636601 47.3796709622949 38.7887869792188
    vertex 28.6206587310093 48.1466094895906 38.7884449811165
  endloop
endfacet
facet normal -0.000133085030542373 -0.000336746855059741 -0.999999934444963
  outer loop
    vertex 28.4458056739695 42.7754559989083 38.7902769706071
    vertex 28.6206587310093 48.1466094895906 38.7884449811165
    vertex 29.2127442661552 42.1462797272899 38.790386775699
  endloop
endfacet
facet normal -0.000133085030542373 -0.000336746855059741 -0.999999934444963
  outer loop
    vertex 29.2127442661552 42.1462797272899 38.790386775699
    vertex 28.6206587310093 48.1466094895906 38.7884449811165
    vertex 29.4268946510118 48.72457241846 38.788143055966
  endloop
endfacet
facet normal -0.000133085030542373 -0.000336746855059741 -0.999999934444963
  outer loop
    vertex 29.2127442661552 42.1462797272899 38.790386775699
    vertex 29.4268946510118 48.72457241846 38.788143055966
    vertex 30.1163928602416 41.7370404145324 38.790404323651
  endloop
endfacet
facet normal -0.000133085030542373 -0.000336746855059741 -0.999999934444963
  outer loop
    vertex 30.1163928602416 41.7370404145324 38.790404323651
    vertex 29.4268946510118 48.72457241846 38.788143055966
    vertex 30.3552465780874 49.0741725304299 38.7879017794674
  endloop
endfacet
facet normal -0.000133085030542373 -0.000336746855059741 -0.999999934444963
  outer loop
    vertex 30.1163928602416 41.7370404145324 38.790404323651
    vertex 30.3552465780874 49.0741725304299 38.7879017794674
    vertex 31.0951692978918 41.5756270435004 38.790328418599
  endloop
endfacet
facet normal -0.000133085030542373 -0.000336746855059741 -0.999999934444963
  outer loop
    vertex 31.0951692978918 41.5756270435004 38.790328418599
    vertex 30.3552465780874 49.0741725304299 38.7879017794674
    vertex 31.3424488625798 49.1715851556108 38.7877375942153
  endloop
endfacet
facet normal -0.000133085030542373 -0.000336746855059741 -0.999999934444963
  outer loop
    vertex 31.0951692978918 41.5756270435004 38.790328418599
    vertex 31.3424488625798 49.1715851556108 38.7877375942153
    vertex 32.0823715823842 41.6730396686813 38.7901642333468
  endloop
endfacet
facet normal -0.000133085030542373 -0.000336746855059741 -0.999999934444963
  outer loop
    vertex 32.0823715823842 41.6730396686813 38.7901642333468
    vertex 31.3424488625798 49.1715851556108 38.7877375942153
    vertex 32.3212253002299 49.0101717845787 38.7876616891633
  endloop
endfacet
facet normal -0.000133085030542373 -0.000336746855059741 -0.999999934444963
  outer loop
    vertex 32.0823715823842 41.6730396686813 38.7901642333468
    vertex 32.3212253002299 49.0101717845787 38.7876616891633
    vertex 33.0107235094597 42.0226397806511 38.7899229568482
  endloop
endfacet
facet normal -0.000133085030542373 -0.000336746855059741 -0.999999934444963
  outer loop
    vertex 33.0107235094597 42.0226397806511 38.7899229568482
    vertex 32.3212253002299 49.0101717845787 38.7876616891633
    vertex 33.2248738943164 48.6009324718212 38.7876792371152
  endloop
endfacet
facet normal -0.000133085030542373 -0.000336746855059741 -0.999999934444963
  outer loop
    vertex 33.0107235094597 42.0226397806511 38.7899229568482
    vertex 33.2248738943164 48.6009324718212 38.7876792371152
    vertex 33.8169594294623 42.6006027095206 38.7896210316978
  endloop
endfacet
facet normal -0.000133085030542373 -0.000336746855059741 -0.999999934444963
  outer loop
    vertex 33.8169594294623 42.6006027095206 38.7896210316978
    vertex 33.2248738943164 48.6009324718212 38.7876792371152
    vertex 33.9918124865021 47.9717562002028 38.7877890422072
  endloop
endfacet
facet normal -0.000133085030542373 -0.000336746855059741 -0.999999934444963
  outer loop
    vertex 33.8169594294623 42.6006027095206 38.7896210316978
    vertex 33.9918124865021 47.9717562002028 38.7877890422072
    vertex 34.4461356968115 43.3675412368162 38.7892790335955
  endloop
endfacet
facet normal -0.000133085030542373 -0.000336746855059741 -0.999999934444963
  outer loop
    vertex 34.4461356968115 43.3675412368162 38.7892790335955
    vertex 33.9918124865021 47.9717562002028 38.7877890422072
    vertex 34.5697754791555 47.1655202928714 38.7879836214037
  endloop
endfacet
facet normal -0.000133085030542373 -0.000336746855059741 -0.999999934444963
  outer loop
    vertex 34.4461356968115 43.3675412368162 38.7892790335955
    vertex 34.5697754791555 47.1655202928714 38.7879836214037
    vertex 34.8553749886505 44.2711897693286 38.7889202691469
  endloop
endfacet
facet normal -0.000133085030542373 -0.000336746855059741 -0.999999934444963
  outer loop
    vertex 34.8553749886505 44.2711897693286 38.7889202691469
    vertex 34.5697754791555 47.1655202928714 38.7879836214037
    vertex 34.9193756494564 46.2371683945437 38.7882497144539
  endloop
endfacet
facet normal -0.000133085030542373 -0.000336746855059741 -0.999999934444963
  outer loop
    vertex 34.8553749886505 44.2711897693286 38.7889202691469
    vertex 34.9193756494564 46.2371683945437 38.7882497144539
    vertex 35.0167883235403 45.2499661529168 38.7885691875563
  endloop
endfacet
facet normal -0.935841680781894 -0.35242061425782 0.000243223068122362
  outer loop
    vertex 34.9193756494564 46.2371683945437 38.7882497144539
    vertex 34.5675130336363 47.1597955963354 21.7879847358393
    vertex 34.9171132039372 46.2314436980077 21.7882508288895
  endloop
endfacet
facet normal -0.935841680781894 -0.35242061425782 0.000243223068122362
  outer loop
    vertex 34.5675130336363 47.1597955963354 21.7879847358393
    vertex 34.9193756494564 46.2371683945437 38.7882497144539
    vertex 34.5697754791555 47.1655202928714 38.7879836214037
  endloop
endfacet
facet normal -0.812740466709357 -0.582625815714877 0.000304361020906844
  outer loop
    vertex 34.5697754791555 47.1655202928714 38.7879836214037
    vertex 33.9895500409828 47.9660315036668 21.7877901566428
    vertex 34.5675130336363 47.1597955963354 21.7879847358393
  endloop
endfacet
facet normal -0.812740466709357 -0.582625815714877 0.000304361020906844
  outer loop
    vertex 33.9895500409828 47.9660315036668 21.7877901566428
    vertex 34.5697754791555 47.1655202928714 38.7879836214037
    vertex 33.9918124865021 47.9717562002028 38.7877890422072
  endloop
endfacet
facet normal -0.63425233294774 -0.773126030665616 0.000344757273096165
  outer loop
    vertex 33.9895500409828 47.9660315036668 21.7877901566428
    vertex 33.2248738943164 48.6009324718212 38.7876792371152
    vertex 33.2226114487971 48.5952077752852 21.7876803515508
  endloop
endfacet
facet normal -0.63425233294774 -0.773126030665616 0.000344757273096165
  outer loop
    vertex 33.2248738943164 48.6009324718212 38.7876792371152
    vertex 33.9895500409828 47.9660315036668 21.7877901566428
    vertex 33.9918124865021 47.9717562002028 38.7877890422072
  endloop
endfacet
facet normal -0.412540950847239 -0.910938984277709 0.000361658886858769
  outer loop
    vertex 33.2226114487971 48.5952077752852 21.7876803515508
    vertex 32.3212253002299 49.0101717845787 38.7876616891633
    vertex 32.3189628547107 49.0044470880427 21.7876628035989
  endloop
endfacet
facet normal -0.412540950847239 -0.910938984277709 0.000361658886858769
  outer loop
    vertex 32.3212253002299 49.0101717845787 38.7876616891633
    vertex 33.2226114487971 48.5952077752852 21.7876803515508
    vertex 33.2248738943164 48.6009324718212 38.7876792371152
  endloop
endfacet
facet normal -0.16271558470265 -0.986672951509123 0.000353914045152848
  outer loop
    vertex 32.3212253002299 49.0101717845787 38.7876616891633
    vertex 31.3401864170606 49.1658604590748 21.7877387086509
    vertex 32.3189628547107 49.0044470880427 21.7876628035989
  endloop
endfacet
facet normal -0.16271558470265 -0.986672951509123 0.000353914045152848
  outer loop
    vertex 31.3401864170606 49.1658604590748 21.7877387086509
    vertex 32.3212253002299 49.0101717845787 38.7876616891633
    vertex 31.3424488625798 49.1715851556108 38.7877375942153
  endloop
endfacet
facet normal 0.098198579639238 -0.995166787649328 0.000322050546144517
  outer loop
    vertex 31.3424488625798 49.1715851556108 38.7877375942153
    vertex 30.3529841325682 49.0684478338938 21.787902893903
    vertex 31.3401864170606 49.1658604590748 21.7877387086509
  endloop
endfacet
facet normal 0.098198579639238 -0.995166787649328 0.000322050546144517
  outer loop
    vertex 30.3529841325682 49.0684478338938 21.787902893903
    vertex 31.3424488625798 49.1715851556108 38.7877375942153
    vertex 30.3552465780874 49.0741725304299 38.7879017794674
  endloop
endfacet
facet normal 0.352420673059465 -0.935841651802112 0.00026823983462722
  outer loop
    vertex 30.3552465780874 49.0741725304299 38.7879017794674
    vertex 29.4246322054926 48.718847721924 21.7881441704017
    vertex 30.3529841325682 49.0684478338938 21.787902893903
  endloop
endfacet
facet normal 0.352420673059465 -0.935841651802112 0.00026823983462722
  outer loop
    vertex 29.4246322054926 48.718847721924 21.7881441704017
    vertex 30.3552465780874 49.0741725304299 38.7879017794674
    vertex 29.4268946510118 48.72457241846 38.788143055966
  endloop
endfacet
facet normal 0.582625880013414 -0.812740453936037 0.000196149021667399
  outer loop
    vertex 29.4268946510118 48.72457241846 38.788143055966
    vertex 28.6183962854901 48.1408847930545 21.7884460955521
    vertex 29.4246322054926 48.718847721924 21.7881441704017
  endloop
endfacet
facet normal 0.582625880013414 -0.812740453936037 0.000196149021667399
  outer loop
    vertex 28.6183962854901 48.1408847930545 21.7884460955521
    vertex 29.4268946510118 48.72457241846 38.788143055966
    vertex 28.6206587310093 48.1466094895906 38.7884449811165
  endloop
endfacet
facet normal 0.773126096079287 -0.634252337251278 0.000110690977032436
  outer loop
    vertex 28.6183962854901 48.1408847930545 21.7884460955521
    vertex 27.9914824636601 47.3796709622949 38.7887869792188
    vertex 27.9892200181409 47.3739462657589 21.7887880936544
  endloop
endfacet
facet normal 0.773126096079287 -0.634252337251278 0.000110690977032436
  outer loop
    vertex 27.9914824636601 47.3796709622949 38.7887869792188
    vertex 28.6183962854901 48.1408847930545 21.7884460955521
    vertex 28.6206587310093 48.1466094895906 38.7884449811165
  endloop
endfacet
facet normal 0.910939046348558 -0.412540971934498 1.7689525237203e-005
  outer loop
    vertex 27.9892200181409 47.3739462657589 21.7887880936544
    vertex 27.5822431718211 46.4760224297826 38.7891457436673
    vertex 27.5799807263019 46.4702977332466 21.789146858103
  endloop
endfacet
facet normal 0.910939046348558 -0.412540971934498 1.7689525237203e-005
  outer loop
    vertex 27.5822431718211 46.4760224297826 38.7891457436673
    vertex 27.9892200181409 47.3739462657589 21.7887880936544
    vertex 27.9914824636601 47.3796709622949 38.7887869792188
  endloop
endfacet
facet normal 0.986673006007182 -0.162715621136485 -7.65174384709761e-005
  outer loop
    vertex 27.5799807263019 46.4702977332466 21.789146858103
    vertex 27.4208298369313 45.4972460461944 38.7894968252579
    vertex 27.418567391412 45.4915213496584 21.7894979396936
  endloop
endfacet
facet normal 0.986673006007182 -0.162715621136485 -7.65174384709761e-005
  outer loop
    vertex 27.4208298369313 45.4972460461944 38.7894968252579
    vertex 27.5799807263019 46.4702977332466 21.789146858103
    vertex 27.5822431718211 46.4760224297826 38.7891457436673
  endloop
endfacet
facet normal 0.995166830860645 0.0981985303416812 -0.000165509865198713
  outer loop
    vertex 27.418567391412 45.4915213496584 21.7894979396936
    vertex 27.5182425110152 44.5100438045674 38.7898162983604
    vertex 27.5159800654959 44.5043191080314 21.789817412796
  endloop
endfacet
facet normal 0.995166830860645 0.0981985303416812 -0.000165509865198713
  outer loop
    vertex 27.5182425110152 44.5100438045674 38.7898162983604
    vertex 27.418567391412 45.4915213496584 21.7894979396936
    vertex 27.4208298369313 45.4972460461944 38.7894968252579
  endloop
endfacet
facet normal 0.935841680781893 0.352420614257821 -0.00024322306812795
  outer loop
    vertex 27.5159800654959 44.5043191080314 21.789817412796
    vertex 27.8678426813161 43.5816919062397 38.7900823914106
    vertex 27.8655802357968 43.5759672097037 21.7900835058462
  endloop
endfacet
facet normal 0.935841680781893 0.352420614257821 -0.00024322306812795
  outer loop
    vertex 27.8678426813161 43.5816919062397 38.7900823914106
    vertex 27.5159800654959 44.5043191080314 21.789817412796
    vertex 27.5182425110152 44.5100438045674 38.7898162983604
  endloop
endfacet
facet normal 0.81274046670936 0.582625815714873 -0.000304361020906843
  outer loop
    vertex 27.8655802357968 43.5759672097037 21.7900835058462
    vertex 28.4458056739695 42.7754559989083 38.7902769706071
    vertex 28.4435432284503 42.7697313023723 21.7902780850427
  endloop
endfacet
facet normal 0.81274046670936 0.582625815714873 -0.000304361020906843
  outer loop
    vertex 28.4458056739695 42.7754559989083 38.7902769706071
    vertex 27.8655802357968 43.5759672097037 21.7900835058462
    vertex 27.8678426813161 43.5816919062397 38.7900823914106
  endloop
endfacet
facet normal 0.634252332947733 0.773126030665623 -0.000344757273092252
  outer loop
    vertex 28.4458056739695 42.7754559989083 38.7902769706071
    vertex 29.210481820636 42.1405550307539 21.7903878901347
    vertex 28.4435432284503 42.7697313023723 21.7902780850427
  endloop
endfacet
facet normal 0.634252332947733 0.773126030665623 -0.000344757273092252
  outer loop
    vertex 29.210481820636 42.1405550307539 21.7903878901347
    vertex 28.4458056739695 42.7754559989083 38.7902769706071
    vertex 29.2127442661552 42.1462797272899 38.790386775699
  endloop
endfacet
facet normal 0.412540950847217 0.91093898427772 -0.000361658886854752
  outer loop
    vertex 29.2127442661552 42.1462797272899 38.790386775699
    vertex 30.1141304147224 41.7313157179965 21.7904054380866
    vertex 29.210481820636 42.1405550307539 21.7903878901347
  endloop
endfacet
facet normal 0.412540950847217 0.91093898427772 -0.000361658886854752
  outer loop
    vertex 30.1141304147224 41.7313157179965 21.7904054380866
    vertex 29.2127442661552 42.1462797272899 38.790386775699
    vertex 30.1163928602416 41.7370404145324 38.790404323651
  endloop
endfacet
facet normal 0.162715584702601 0.986672951509131 -0.000353914045150494
  outer loop
    vertex 30.1141304147224 41.7313157179965 21.7904054380866
    vertex 31.0951692978918 41.5756270435004 38.790328418599
    vertex 31.0929068523725 41.5699023469644 21.7903295330346
  endloop
endfacet
facet normal 0.162715584702601 0.986672951509131 -0.000353914045150494
  outer loop
    vertex 31.0951692978918 41.5756270435004 38.790328418599
    vertex 30.1141304147224 41.7313157179965 21.7904054380866
    vertex 30.1163928602416 41.7370404145324 38.790404323651
  endloop
endfacet
facet normal -0.0981985796391829 0.995166787649333 -0.000322050546141262
  outer loop
    vertex 31.0929068523725 41.5699023469644 21.7903295330346
    vertex 32.0823715823842 41.6730396686813 38.7901642333468
    vertex 32.080109136865 41.6673149721453 21.7901653477825
  endloop
endfacet
facet normal -0.0981985796391829 0.995166787649333 -0.000322050546141262
  outer loop
    vertex 32.0823715823842 41.6730396686813 38.7901642333468
    vertex 31.0929068523725 41.5699023469644 21.7903295330346
    vertex 31.0951692978918 41.5756270435004 38.790328418599
  endloop
endfacet
facet normal -0.352420673059454 0.935841651802116 -0.000268239834624216
  outer loop
    vertex 32.080109136865 41.6673149721453 21.7901653477825
    vertex 33.0107235094597 42.0226397806511 38.7899229568482
    vertex 33.0084610639405 42.0169150841151 21.7899240712838
  endloop
endfacet
facet normal -0.352420673059454 0.935841651802116 -0.000268239834624216
  outer loop
    vertex 33.0107235094597 42.0226397806511 38.7899229568482
    vertex 32.080109136865 41.6673149721453 21.7901653477825
    vertex 32.0823715823842 41.6730396686813 38.7901642333468
  endloop
endfacet
facet normal -0.582625880013403 0.812740453936045 -0.00019614902166494
  outer loop
    vertex 33.0084610639405 42.0169150841151 21.7899240712838
    vertex 33.8169594294623 42.6006027095206 38.7896210316978
    vertex 33.8146969839431 42.5948780129846 21.7896221461334
  endloop
endfacet
facet normal -0.582625880013403 0.812740453936045 -0.00019614902166494
  outer loop
    vertex 33.8169594294623 42.6006027095206 38.7896210316978
    vertex 33.0084610639405 42.0169150841151 21.7899240712838
    vertex 33.0107235094597 42.0226397806511 38.7899229568482
  endloop
endfacet
facet normal -0.773126096079265 0.634252337251305 -0.000110690977030658
  outer loop
    vertex 33.8169594294623 42.6006027095206 38.7896210316978
    vertex 34.4438732512923 43.3618165402802 21.7892801480311
    vertex 33.8146969839431 42.5948780129846 21.7896221461334
  endloop
endfacet
facet normal -0.773126096079265 0.634252337251305 -0.000110690977030658
  outer loop
    vertex 34.4438732512923 43.3618165402802 21.7892801480311
    vertex 33.8169594294623 42.6006027095206 38.7896210316978
    vertex 34.4461356968115 43.3675412368162 38.7892790335955
  endloop
endfacet
facet normal -0.910939046348576 0.412540971934458 -1.76895252371047e-005
  outer loop
    vertex 34.4461356968115 43.3675412368162 38.7892790335955
    vertex 34.8531125431313 44.2654650727926 21.7889213835825
    vertex 34.4438732512923 43.3618165402802 21.7892801480311
  endloop
endfacet
facet normal -0.910939046348576 0.412540971934458 -1.76895252371047e-005
  outer loop
    vertex 34.8531125431313 44.2654650727926 21.7889213835825
    vertex 34.4461356968115 43.3675412368162 38.7892790335955
    vertex 34.8553749886505 44.2711897693286 38.7889202691469
  endloop
endfacet
facet normal 0.000133085030544916 0.00033674685505802 0.999999934444963
  outer loop
    vertex 25.5507839211478 44.0440712281106 16.3902335840411
    vertex 25.6487598813676 47.0537064592384 16.3892070596412
    vertex 25.4016588939877 45.5553382421778 16.3897445159037
  endloop
endfacet
facet normal 0.000133085030544916 0.00033674685505802 0.999999934444963
  outer loop
    vertex 25.6487598813676 47.0537064592384 16.3892070596412
    vertex 25.5507839211478 44.0440712281106 16.3902335840411
    vertex 26.0859723386875 42.6228957665586 16.390640934868
  endloop
endfacet
facet normal 0.000133085030544916 0.00033674685505802 0.999999934444963
  outer loop
    vertex 25.6487598813676 47.0537064592384 16.3892070596412
    vertex 26.0859723386875 42.6228957665586 16.390640934868
    vertex 26.275247359351 48.4370645614703 16.3886578420097
  endloop
endfacet
facet normal 0.000133085030544916 0.00033674685505802 0.999999934444963
  outer loop
    vertex 26.275247359351 48.4370645614703 16.3886578420097
    vertex 26.0859723386875 42.6228957665586 16.390640934868
    vertex 26.9707519403923 41.3886626166233 16.3909388080989
  endloop
endfacet
facet normal 0.000133085030544916 0.00033674685505802 0.999999934444963
  outer loop
    vertex 26.275247359351 48.4370645614703 16.3886578420097
    vertex 26.9707519403923 41.3886626166233 16.3909388080989
    vertex 27.238427241633 49.6111389803138 16.3881342912831
  endloop
endfacet
facet normal 0.000133085030544916 0.00033674685505802 0.999999934444963
  outer loop
    vertex 27.238427241633 49.6111389803138 16.3881342912831
    vertex 26.9707519403923 41.3886626166233 16.3909388080989
    vertex 28.1448264585733 40.4254827278058 16.3911069041652
  endloop
endfacet
facet normal 0.000133085030544916 0.00033674685505802 0.999999934444963
  outer loop
    vertex 27.238427241633 49.6111389803138 16.3881342912831
    vertex 28.1448264585733 40.4254827278058 16.3911069041652
    vertex 28.4726604109661 50.4959184843743 16.3876720865784
  endloop
endfacet
facet normal 0.000133085030544916 0.00033674685505802 0.999999934444963
  outer loop
    vertex 28.4726604109661 50.4959184843743 16.3876720865784
    vertex 28.1448264585733 40.4254827278058 16.3911069041652
    vertex 29.5281846550664 39.7989952177991 16.3911337675979
  endloop
endfacet
facet normal 0.000133085030544916 0.00033674685505802 0.999999934444963
  outer loop
    vertex 28.4726604109661 50.4959184843743 16.3876720865784
    vertex 29.5281846550664 39.7989952177991 16.3911337675979
    vertex 29.8938359165269 51.0311068126174 16.3873027263822
  endloop
endfacet
facet normal 0.000133085030544916 0.00033674685505802 0.999999934444963
  outer loop
    vertex 29.8938359165269 51.0311068126174 16.3873027263822
    vertex 29.5281846550664 39.7989952177991 16.3911337675979
    vertex 31.0265529548881 39.5518941750906 16.3910175676983
  endloop
endfacet
facet normal 0.000133085030544916 0.00033674685505802 0.999999934444963
  outer loop
    vertex 29.8938359165269 51.0311068126174 16.3873027263822
    vertex 31.0265529548881 39.5518941750906 16.3910175676983
    vertex 31.4051029962151 51.1802317649139 16.3870513819816
  endloop
endfacet
facet normal 0.000133085030544916 0.00033674685505802 0.999999934444963
  outer loop
    vertex 31.4051029962151 51.1802317649139 16.3870513819816
    vertex 31.0265529548881 39.5518941750906 16.3910175676983
    vertex 32.5378200345763 39.7010191273871 16.3907662232977
  endloop
endfacet
facet normal 0.000133085030544916 0.00033674685505802 0.999999934444963
  outer loop
    vertex 31.4051029962151 51.1802317649139 16.3870513819816
    vertex 32.5378200345763 39.7010191273871 16.3907662232977
    vertex 32.9034712960369 50.9331307222054 16.386935182082
  endloop
endfacet
facet normal 0.000133085030544916 0.00033674685505802 0.999999934444963
  outer loop
    vertex 32.9034712960369 50.9331307222054 16.386935182082
    vertex 32.5378200345763 39.7010191273871 16.3907662232977
    vertex 33.9589955401372 40.2362074556302 16.3903968631015
  endloop
endfacet
facet normal 0.000133085030544916 0.00033674685505802 0.999999934444963
  outer loop
    vertex 32.9034712960369 50.9331307222054 16.386935182082
    vertex 33.9589955401372 40.2362074556302 16.3903968631015
    vertex 34.28682949253 50.3066432121987 16.3869620455147
  endloop
endfacet
facet normal 0.000133085030544916 0.00033674685505802 0.999999934444963
  outer loop
    vertex 34.28682949253 50.3066432121987 16.3869620455147
    vertex 33.9589955401372 40.2362074556302 16.3903968631015
    vertex 35.1932287094702 41.1209869596908 16.3899346583968
  endloop
endfacet
facet normal 0.000133085030544916 0.00033674685505802 0.999999934444963
  outer loop
    vertex 34.28682949253 50.3066432121987 16.3869620455147
    vertex 35.1932287094702 41.1209869596908 16.3899346583968
    vertex 35.460904010711 49.3434633233812 16.387130141581
  endloop
endfacet
facet normal 0.000133085030544916 0.00033674685505802 0.999999934444963
  outer loop
    vertex 35.460904010711 49.3434633233812 16.387130141581
    vertex 35.1932287094702 41.1209869596908 16.3899346583968
    vertex 36.1564085917523 42.2950613785342 16.3894111076702
  endloop
endfacet
facet normal 0.000133085030544916 0.00033674685505802 0.999999934444963
  outer loop
    vertex 35.460904010711 49.3434633233812 16.387130141581
    vertex 36.1564085917523 42.2950613785342 16.3894111076702
    vertex 36.3456836124157 48.1092301734459 16.3874280148119
  endloop
endfacet
facet normal 0.000133085030544916 0.00033674685505802 0.999999934444963
  outer loop
    vertex 36.3456836124157 48.1092301734459 16.3874280148119
    vertex 36.1564085917523 42.2950613785342 16.3894111076702
    vertex 36.7828960697357 43.6784194807661 16.3888618900388
  endloop
endfacet
facet normal 0.000133085030544916 0.00033674685505802 0.999999934444963
  outer loop
    vertex 36.3456836124157 48.1092301734459 16.3874280148119
    vertex 36.7828960697357 43.6784194807661 16.3888618900388
    vertex 36.8808720299555 46.6880547118939 16.3878353656388
  endloop
endfacet
facet normal 0.000133085030544916 0.00033674685505802 0.999999934444963
  outer loop
    vertex 36.8808720299555 46.6880547118939 16.3878353656388
    vertex 36.7828960697357 43.6784194807661 16.3888618900388
    vertex 37.0299970571155 45.1767876978267 16.3883244337762
  endloop
endfacet
endsolid pininho
