 0
SECTION
 2
ENTITIES
  0
LINE
 8
Layer0
10
730.000000000111
20
1.84634072628596e-11
30
2.10362449681867e-11
11
910.000000000139
21
2.3021657845165e-11
31
2.58978671840993e-11
  0
LINE
 8
Layer0
10
910.000000000138
20
776.971343228405
30
0.0
11
910.000000000139
21
2.3021657845165e-11
31
2.58978671840993e-11
  0
LINE
 8
Layer0
10
910.000000000111
20
1100.00050325094
30
2.25428120614879e-11
11
910.000000000138
21
776.971343228405
31
0.0
  0
LINE
 8
Layer0
10
1446.00000000014
20
776.971343228403
30
4.55495086093549e-12
11
1446.00000000014
21
0.00048970717984062
31
4.64518978837702e-12
  0
LINE
 8
Layer0
10
1096.00000000014
20
0.000489707179660142
30
4.69665417668352e-12
11
1446.00000000014
21
0.00048970717984062
31
4.64518978837702e-12
  0
LINE
 8
Layer0
10
1096.00000000014
20
0.000489707179660142
30
4.69665417668352e-12
11
1096.00000000014
21
776.971343228403
31
4.60641524924199e-12
  0
LINE
 8
Layer0
10
910.000000000138
20
776.971343228405
30
0.0
11
1096.00000000014
21
776.971343228403
31
4.60641524924199e-12
  0
LINE
 8
Layer0
10
910.000000000139
20
2.3021657845165e-11
30
2.58978671840993e-11
11
1096.00000000014
21
0.000489707179660142
31
4.69665417668352e-12
  0
LINE
 8
Layer0
10
0.0
20
1100.00050325092
30
1.50374712681867e-12
11
2.76941858334823e-11
21
0.0
31
4.85880224943003e-12
  0
LINE
 8
Layer0
10
2.76941858334823e-11
20
0.0
30
4.85880224943003e-12
11
95.0000000000554
21
2.41703672745533e-12
31
9.0090879201199e-12
  0
LINE
 8
Layer0
10
95.0000000000277
20
1100.00050325092
30
5.65403279750853e-12
11
95.0000000000554
21
2.41703672745533e-12
31
9.0090879201199e-12
  0
LINE
 8
Layer0
10
0.0
20
1100.00050325092
30
1.50374712681867e-12
11
95.0000000000277
21
1100.00050325092
31
5.65403279750853e-12
  0
LINE
 8
Layer0
10
370.000000000083
20
9.44757002097152e-12
30
1.46631207176284e-11
11
550.000000000083
21
1.39051566805542e-11
31
1.61746227522741e-11
  0
LINE
 8
Layer0
10
1096.00000000014
20
776.971343228403
30
4.60641524924199e-12
11
1446.00000000014
21
776.971343228403
31
4.55495086093549e-12
  0
LINE
 8
Layer0
10
370.000000000056
20
1100.00050325093
30
1.13080655950171e-11
11
550.000000000055
21
1100.00050325093
31
1.28195676296627e-11
  0
LINE
 8
Layer0
10
550.000000000055
20
1100.00050325093
30
1.28195676296627e-11
11
550.000000000083
21
1.39051566805542e-11
31
1.61746227522741e-11
  0
LINE
 8
Layer0
10
370.000000000056
20
1100.00050325093
30
1.13080655950171e-11
11
370.000000000083
21
9.44757002097152e-12
31
1.46631207176284e-11
  0
LINE
 8
Layer0
10
440.000000000057
20
1030.00050325093
30
1.21103460593019e-11
11
440.000000000081
21
70.0000000000111
31
1.50395862430486e-11
  0
LINE
 8
Layer0
10
480.000000000057
20
1030.00050325093
30
1.24473320539664e-11
11
440.000000000057
21
1030.00050325093
31
1.21103460593019e-11
  0
LINE
 8
Layer0
10
480.000000000081
20
70.0000000000122
30
1.53751622544718e-11
11
480.000000000057
21
1030.00050325093
31
1.24473320539664e-11
  0
LINE
 8
Layer0
10
440.000000000081
20
70.0000000000111
30
1.50395862430486e-11
11
480.000000000081
21
70.0000000000122
31
1.53751622544718e-11
  0
LINE
 8
Layer0
10
300.000000000058
20
1030.00050325093
30
1.09358300193207e-11
11
260.000000000057
21
1030.00050325093
31
1.05988440246563e-11
  0
LINE
 8
Layer0
10
95.0000000000554
20
2.41703672745533e-12
30
9.0090879201199e-12
11
190.000000000083
21
4.91439618402878e-12
31
1.31558486327066e-11
  0
LINE
 8
Layer0
10
300.000000000082
20
70.0000000000077
30
1.38636602198261e-11
11
300.000000000058
21
1030.00050325093
31
1.09358300193207e-11
  0
LINE
 8
Layer0
10
260.000000000082
20
70.0000000000067
30
1.35280842084029e-11
11
300.000000000082
21
70.0000000000077
31
1.38636602198261e-11
  0
LINE
 8
Layer0
10
260.000000000057
20
1030.00050325093
30
1.05988440246563e-11
11
260.000000000082
21
70.0000000000067
31
1.35280842084029e-11
  0
LINE
 8
Layer0
10
95.0000000000277
20
1100.00050325092
30
5.65403279750853e-12
11
190.000000000056
21
1100.00050325093
31
9.80079351009522e-12
  0
LINE
 8
Layer0
10
190.000000000056
20
1100.00050325093
30
9.80079351009522e-12
11
190.000000000083
21
4.91439618402878e-12
31
1.31558486327066e-11
  0
LINE
 8
Layer0
10
550.000000000055
20
1100.00050325093
30
1.28195676296627e-11
11
730.000000000083
21
1100.00050325094
31
1.76811898455753e-11
  0
LINE
 8
Layer0
10
550.000000000083
20
1.39051566805542e-11
30
1.61746227522741e-11
11
730.000000000111
21
1.84634072628596e-11
31
2.10362449681867e-11
  0
LINE
 8
Layer0
10
190.000000000083
20
4.91439618402878e-12
30
1.31558486327066e-11
11
370.000000000083
21
9.44757002097152e-12
31
1.46631207176284e-11
  0
LINE
 8
Layer0
10
190.000000000056
20
1100.00050325093
30
9.80079351009522e-12
11
370.000000000056
21
1100.00050325093
31
1.13080655950171e-11
  0
LINE
 8
Layer0
10
730.000000000083
20
1100.00050325094
30
1.76811898455753e-11
11
910.000000000111
21
1100.00050325094
31
2.25428120614879e-11
  0
LINE
 8
Layer0
10
730.000000000083
20
1100.00050325094
30
1.76811898455753e-11
11
730.000000000111
21
1.84634072628596e-11
31
2.10362449681867e-11
 0
ENDSEC
 0
EOF
